<?xml version="1.0" encoding="UTF-8" standalone="no"?>
<!DOCTYPE svg PUBLIC "-//W3C//DTD SVG 1.1//EN" "http://www.w3.org/Graphics/SVG/1.1/DTD/svg11.dtd">
<!-- Generated by graphviz version 2.40.1 (20161225.0304)
 -->
<!-- Title: G Pages: 1 -->
<svg width="268pt" height="260pt" viewBox="0.00 0.00 267.52 260.00" xmlns="http://www.w3.org/2000/svg" xmlns:xlink="http://www.w3.org/1999/xlink">
<g id="graph0" class="graph" transform="scale(1 1) rotate(0) translate(4 256)">
<title>G</title>
<polygon fill="#ffffff" stroke="transparent" points="-4,4 -4,-256 263.5235,-256 263.5235,4 -4,4"/>
<!-- git&#45;clone -->
<g id="node1" class="node">
<title>git-clone</title>
<ellipse fill="none" stroke="#000000" cx="127.9506" cy="-234" rx="45.2227" ry="18"/>
<text text-anchor="middle" x="127.9506" y="-229.8" font-family="Times,serif" font-size="14.00" fill="#000000">git-clone</text>
</g>
<!-- black -->
<g id="node2" class="node">
<title>black</title>
<ellipse fill="none" stroke="#000000" cx="31.9506" cy="-162" rx="31.9012" ry="18"/>
<text text-anchor="middle" x="31.9506" y="-157.8" font-family="Times,serif" font-size="14.00" fill="#000000">black</text>
</g>
<!-- git&#45;clone&#45;&gt;black -->
<g id="edge1" class="edge">
<title>git-clone-&gt;black</title>
<path fill="none" stroke="#000000" d="M106.645,-218.0209C92.7921,-207.6312 74.5897,-193.9794 59.6221,-182.7536"/>
<polygon fill="#000000" stroke="#000000" points="61.3405,-179.6675 51.2405,-176.4674 57.1405,-185.2675 61.3405,-179.6675"/>
</g>
<!-- yaml&#45;lint -->
<g id="node4" class="node">
<title>yaml-lint</title>
<ellipse fill="none" stroke="#000000" cx="127.9506" cy="-162" rx="46.3836" ry="18"/>
<text text-anchor="middle" x="127.9506" y="-157.8" font-family="Times,serif" font-size="14.00" fill="#000000">yaml-lint</text>
</g>
<!-- git&#45;clone&#45;&gt;yaml&#45;lint -->
<g id="edge3" class="edge">
<title>git-clone-&gt;yaml-lint</title>
<path fill="none" stroke="#000000" d="M127.9506,-215.8314C127.9506,-208.131 127.9506,-198.9743 127.9506,-190.4166"/>
<polygon fill="#000000" stroke="#000000" points="131.4507,-190.4132 127.9506,-180.4133 124.4507,-190.4133 131.4507,-190.4132"/>
</g>
<!-- pylint -->
<g id="node5" class="node">
<title>pylint</title>
<ellipse fill="none" stroke="#000000" cx="225.9506" cy="-162" rx="33.646" ry="18"/>
<text text-anchor="middle" x="225.9506" y="-157.8" font-family="Times,serif" font-size="14.00" fill="#000000">pylint</text>
</g>
<!-- git&#45;clone&#45;&gt;pylint -->
<g id="edge5" class="edge">
<title>git-clone-&gt;pylint</title>
<path fill="none" stroke="#000000" d="M149.6999,-218.0209C163.8784,-207.604 182.5204,-193.9079 197.8224,-182.6656"/>
<polygon fill="#000000" stroke="#000000" points="199.9439,-185.4501 205.9304,-176.7087 195.7993,-179.8089 199.9439,-185.4501"/>
</g>
<!-- pytest -->
<g id="node3" class="node">
<title>pytest</title>
<ellipse fill="none" stroke="#000000" cx="127.9506" cy="-90" rx="34.2065" ry="18"/>
<text text-anchor="middle" x="127.9506" y="-85.8" font-family="Times,serif" font-size="14.00" fill="#000000">pytest</text>
</g>
<!-- black&#45;&gt;pytest -->
<g id="edge2" class="edge">
<title>black-&gt;pytest</title>
<path fill="none" stroke="#000000" d="M51.3776,-147.4297C65.3383,-136.9592 84.3691,-122.6861 99.9655,-110.9888"/>
<polygon fill="#000000" stroke="#000000" points="102.3229,-113.5958 108.2229,-104.7957 98.1229,-107.9958 102.3229,-113.5958"/>
</g>
<!-- build -->
<g id="node6" class="node">
<title>build</title>
<ellipse fill="none" stroke="#000000" cx="127.9506" cy="-18" rx="30.7789" ry="18"/>
<text text-anchor="middle" x="127.9506" y="-13.8" font-family="Times,serif" font-size="14.00" fill="#000000">build</text>
</g>
<!-- pytest&#45;&gt;build -->
<g id="edge7" class="edge">
<title>pytest-&gt;build</title>
<path fill="none" stroke="#000000" d="M127.9506,-71.8314C127.9506,-64.131 127.9506,-54.9743 127.9506,-46.4166"/>
<polygon fill="#000000" stroke="#000000" points="131.4507,-46.4132 127.9506,-36.4133 124.4507,-46.4133 131.4507,-46.4132"/>
</g>
<!-- yaml&#45;lint&#45;&gt;pytest -->
<g id="edge4" class="edge">
<title>yaml-lint-&gt;pytest</title>
<path fill="none" stroke="#000000" d="M127.9506,-143.8314C127.9506,-136.131 127.9506,-126.9743 127.9506,-118.4166"/>
<polygon fill="#000000" stroke="#000000" points="131.4507,-118.4132 127.9506,-108.4133 124.4507,-118.4133 131.4507,-118.4132"/>
</g>
<!-- pylint&#45;&gt;pytest -->
<g id="edge6" class="edge">
<title>pylint-&gt;pytest</title>
<path fill="none" stroke="#000000" d="M206.1188,-147.4297C191.8673,-136.9592 172.44,-122.6861 156.5186,-110.9888"/>
<polygon fill="#000000" stroke="#000000" points="158.2203,-107.8959 148.0892,-104.7957 154.0757,-113.5371 158.2203,-107.8959"/>
</g>
</g>
</svg>